<mxfile host="app.diagrams.net" modified="2022-04-14T01:03:21.239Z" agent="5.0 (X11)" etag="Leoyt-FmMPWeXEYyIrbU" version="17.4.4" type="github" pages="2">
  <diagram name="Page-1" id="e7e014a7-5840-1c2e-5031-d8a46d1fe8dd">
    <mxGraphModel dx="868" dy="593" grid="1" gridSize="10" guides="1" tooltips="1" connect="1" arrows="1" fold="1" page="1" pageScale="1" pageWidth="1169" pageHeight="826" background="none" math="0" shadow="0">
      <root>
        <mxCell id="0" />
        <mxCell id="1" parent="0" />
        <mxCell id="2" value="User" style="swimlane;whiteSpace=wrap" parent="1" vertex="1">
          <mxGeometry x="164.5" y="128" width="280" height="622" as="geometry" />
        </mxCell>
        <mxCell id="5" value="" style="ellipse;shape=startState;fillColor=#000000;strokeColor=#ff0000;" parent="2" vertex="1">
          <mxGeometry x="100" y="40" width="30" height="30" as="geometry" />
        </mxCell>
        <mxCell id="6" value="" style="edgeStyle=elbowEdgeStyle;elbow=horizontal;verticalAlign=bottom;endArrow=open;endSize=8;strokeColor=#FF0000;endFill=1;rounded=0" parent="2" source="5" target="7" edge="1">
          <mxGeometry x="100" y="40" as="geometry">
            <mxPoint x="115" y="110" as="targetPoint" />
          </mxGeometry>
        </mxCell>
        <mxCell id="4YQRSSVXRkcQdVP3ZcSd-55" style="edgeStyle=orthogonalEdgeStyle;rounded=0;orthogonalLoop=1;jettySize=auto;html=1;entryX=0.496;entryY=-0.033;entryDx=0;entryDy=0;entryPerimeter=0;strokeColor=#FF0000;" edge="1" parent="2" source="7" target="8">
          <mxGeometry relative="1" as="geometry" />
        </mxCell>
        <mxCell id="7" value="User memilih buku&#xa;yang akan dipinjam" style="" parent="2" vertex="1">
          <mxGeometry x="60" y="110" width="110" height="50" as="geometry" />
        </mxCell>
        <mxCell id="4YQRSSVXRkcQdVP3ZcSd-54" style="edgeStyle=orthogonalEdgeStyle;rounded=0;orthogonalLoop=1;jettySize=auto;html=1;entryX=0.505;entryY=-0.02;entryDx=0;entryDy=0;entryPerimeter=0;strokeColor=#FF0000;" edge="1" parent="2" source="8" target="10">
          <mxGeometry relative="1" as="geometry" />
        </mxCell>
        <mxCell id="8" value="User memasukkan&#xa;opsi berapa hari&#xa;akan meminjam buku" style="" parent="2" vertex="1">
          <mxGeometry x="49" y="220" width="132" height="60" as="geometry" />
        </mxCell>
        <mxCell id="10" value="User mengsubmit" style="" parent="2" vertex="1">
          <mxGeometry x="60" y="325" width="110" height="50" as="geometry" />
        </mxCell>
        <mxCell id="4YQRSSVXRkcQdVP3ZcSd-58" style="edgeStyle=orthogonalEdgeStyle;rounded=0;orthogonalLoop=1;jettySize=auto;html=1;entryX=0.5;entryY=0;entryDx=0;entryDy=0;strokeColor=#FF0000;" edge="1" parent="2" source="4YQRSSVXRkcQdVP3ZcSd-50" target="4YQRSSVXRkcQdVP3ZcSd-56">
          <mxGeometry relative="1" as="geometry" />
        </mxCell>
        <mxCell id="4YQRSSVXRkcQdVP3ZcSd-50" value="User mendapatkan kode, yang nantinya untuk diberikan admin perpustakaan" style="rounded=0;whiteSpace=wrap;html=1;" vertex="1" parent="2">
          <mxGeometry x="60" y="422" width="120" height="60" as="geometry" />
        </mxCell>
        <mxCell id="4YQRSSVXRkcQdVP3ZcSd-56" value="" style="ellipse;html=1;shape=endState;fillColor=#000000;strokeColor=#ff0000;" vertex="1" parent="2">
          <mxGeometry x="105.5" y="542" width="30" height="30" as="geometry" />
        </mxCell>
        <mxCell id="3" value="Server" style="swimlane;whiteSpace=wrap" parent="1" vertex="1">
          <mxGeometry x="445" y="128" width="280" height="622" as="geometry" />
        </mxCell>
        <mxCell id="4YQRSSVXRkcQdVP3ZcSd-48" style="edgeStyle=orthogonalEdgeStyle;rounded=0;orthogonalLoop=1;jettySize=auto;html=1;entryX=0.5;entryY=-0.05;entryDx=0;entryDy=0;entryPerimeter=0;strokeColor=#FF0000;" edge="1" parent="3" source="4YQRSSVXRkcQdVP3ZcSd-44" target="4YQRSSVXRkcQdVP3ZcSd-47">
          <mxGeometry relative="1" as="geometry" />
        </mxCell>
        <mxCell id="4YQRSSVXRkcQdVP3ZcSd-44" value="Server merekam data&lt;br&gt;dari user" style="rounded=0;whiteSpace=wrap;html=1;" vertex="1" parent="3">
          <mxGeometry x="80.5" y="122" width="120" height="60" as="geometry" />
        </mxCell>
        <mxCell id="4YQRSSVXRkcQdVP3ZcSd-47" value="Server memproses&lt;br&gt;peminjaman" style="rounded=0;whiteSpace=wrap;html=1;" vertex="1" parent="3">
          <mxGeometry x="80.5" y="422" width="120" height="60" as="geometry" />
        </mxCell>
        <mxCell id="4YQRSSVXRkcQdVP3ZcSd-46" style="edgeStyle=orthogonalEdgeStyle;rounded=0;orthogonalLoop=1;jettySize=auto;html=1;entryX=0;entryY=0.5;entryDx=0;entryDy=0;exitX=1.023;exitY=0.48;exitDx=0;exitDy=0;exitPerimeter=0;strokeColor=#FF0000;" edge="1" parent="1" source="10" target="4YQRSSVXRkcQdVP3ZcSd-44">
          <mxGeometry relative="1" as="geometry">
            <mxPoint x="340" y="478" as="sourcePoint" />
          </mxGeometry>
        </mxCell>
        <mxCell id="4YQRSSVXRkcQdVP3ZcSd-51" style="edgeStyle=orthogonalEdgeStyle;rounded=0;orthogonalLoop=1;jettySize=auto;html=1;entryX=1.029;entryY=0.517;entryDx=0;entryDy=0;entryPerimeter=0;strokeColor=#FF0000;exitX=0;exitY=0.483;exitDx=0;exitDy=0;exitPerimeter=0;" edge="1" parent="1" source="4YQRSSVXRkcQdVP3ZcSd-47" target="4YQRSSVXRkcQdVP3ZcSd-50">
          <mxGeometry relative="1" as="geometry">
            <mxPoint x="520" y="580" as="sourcePoint" />
            <Array as="points">
              <mxPoint x="526" y="581" />
            </Array>
          </mxGeometry>
        </mxCell>
      </root>
    </mxGraphModel>
  </diagram>
  <diagram id="rRs1OpgeGRkcJDFxJnKp" name="Page-2">
    <mxGraphModel dx="868" dy="593" grid="1" gridSize="10" guides="1" tooltips="1" connect="1" arrows="1" fold="1" page="1" pageScale="1" pageWidth="850" pageHeight="1100" math="0" shadow="0">
      <root>
        <mxCell id="0" />
        <mxCell id="1" parent="0" />
        <mxCell id="QOHJSO203ooWmIc7HkMj-1" value="Admin" style="swimlane;whiteSpace=wrap" vertex="1" parent="1">
          <mxGeometry x="164.5" y="128" width="280" height="732" as="geometry" />
        </mxCell>
        <mxCell id="QOHJSO203ooWmIc7HkMj-2" value="" style="ellipse;shape=startState;fillColor=#000000;strokeColor=#ff0000;" vertex="1" parent="QOHJSO203ooWmIc7HkMj-1">
          <mxGeometry x="100" y="40" width="30" height="30" as="geometry" />
        </mxCell>
        <mxCell id="QOHJSO203ooWmIc7HkMj-3" value="" style="edgeStyle=elbowEdgeStyle;elbow=horizontal;verticalAlign=bottom;endArrow=open;endSize=8;strokeColor=#FF0000;endFill=1;rounded=0;entryX=0.514;entryY=0;entryDx=0;entryDy=0;entryPerimeter=0;" edge="1" parent="QOHJSO203ooWmIc7HkMj-1" source="QOHJSO203ooWmIc7HkMj-2" target="QOHJSO203ooWmIc7HkMj-5">
          <mxGeometry x="100" y="40" as="geometry">
            <mxPoint x="115" y="110" as="targetPoint" />
          </mxGeometry>
        </mxCell>
        <mxCell id="QOHJSO203ooWmIc7HkMj-4" style="edgeStyle=orthogonalEdgeStyle;rounded=0;orthogonalLoop=1;jettySize=auto;html=1;entryX=0.496;entryY=-0.033;entryDx=0;entryDy=0;entryPerimeter=0;strokeColor=#FF0000;" edge="1" parent="QOHJSO203ooWmIc7HkMj-1" source="QOHJSO203ooWmIc7HkMj-5" target="QOHJSO203ooWmIc7HkMj-7">
          <mxGeometry relative="1" as="geometry" />
        </mxCell>
        <mxCell id="QOHJSO203ooWmIc7HkMj-5" value="Admin memasukkan &#xa;kode dari user" style="" vertex="1" parent="QOHJSO203ooWmIc7HkMj-1">
          <mxGeometry x="60" y="110" width="110" height="50" as="geometry" />
        </mxCell>
        <mxCell id="QOHJSO203ooWmIc7HkMj-7" value="Admin mensubmit kode" style="" vertex="1" parent="QOHJSO203ooWmIc7HkMj-1">
          <mxGeometry x="49" y="220" width="132" height="60" as="geometry" />
        </mxCell>
        <mxCell id="QOHJSO203ooWmIc7HkMj-10" value="Admin mengkonfirmasi peminjaman" style="rounded=0;whiteSpace=wrap;html=1;" vertex="1" parent="QOHJSO203ooWmIc7HkMj-1">
          <mxGeometry x="61" y="382" width="120" height="60" as="geometry" />
        </mxCell>
        <mxCell id="QOHJSO203ooWmIc7HkMj-12" value="Server" style="swimlane;whiteSpace=wrap" vertex="1" parent="1">
          <mxGeometry x="445" y="128" width="280" height="732" as="geometry" />
        </mxCell>
        <mxCell id="QOHJSO203ooWmIc7HkMj-18" value="server menampilkan data pre peminjaman" style="rounded=0;whiteSpace=wrap;html=1;" vertex="1" parent="QOHJSO203ooWmIc7HkMj-12">
          <mxGeometry x="80" y="302" width="120" height="60" as="geometry" />
        </mxCell>
        <mxCell id="QOHJSO203ooWmIc7HkMj-25" style="edgeStyle=orthogonalEdgeStyle;rounded=0;orthogonalLoop=1;jettySize=auto;html=1;entryX=0.5;entryY=0;entryDx=0;entryDy=0;strokeColor=#FF0000;" edge="1" parent="QOHJSO203ooWmIc7HkMj-12" source="QOHJSO203ooWmIc7HkMj-23" target="QOHJSO203ooWmIc7HkMj-24">
          <mxGeometry relative="1" as="geometry" />
        </mxCell>
        <mxCell id="QOHJSO203ooWmIc7HkMj-23" value="Server menyimpan konfirmasi admin" style="rounded=0;whiteSpace=wrap;html=1;" vertex="1" parent="QOHJSO203ooWmIc7HkMj-12">
          <mxGeometry x="80" y="492" width="120" height="60" as="geometry" />
        </mxCell>
        <mxCell id="QOHJSO203ooWmIc7HkMj-24" value="" style="ellipse;html=1;shape=endState;fillColor=#000000;strokeColor=#ff0000;" vertex="1" parent="QOHJSO203ooWmIc7HkMj-12">
          <mxGeometry x="125" y="642" width="30" height="30" as="geometry" />
        </mxCell>
        <mxCell id="QOHJSO203ooWmIc7HkMj-19" style="edgeStyle=orthogonalEdgeStyle;rounded=0;orthogonalLoop=1;jettySize=auto;html=1;entryX=0.008;entryY=0.533;entryDx=0;entryDy=0;entryPerimeter=0;strokeColor=#FF0000;exitX=1.004;exitY=0.5;exitDx=0;exitDy=0;exitPerimeter=0;" edge="1" parent="1" source="QOHJSO203ooWmIc7HkMj-7" target="QOHJSO203ooWmIc7HkMj-18">
          <mxGeometry relative="1" as="geometry">
            <mxPoint x="390" y="380" as="sourcePoint" />
          </mxGeometry>
        </mxCell>
        <mxCell id="QOHJSO203ooWmIc7HkMj-22" style="edgeStyle=orthogonalEdgeStyle;rounded=0;orthogonalLoop=1;jettySize=auto;html=1;entryX=1.004;entryY=0.617;entryDx=0;entryDy=0;entryPerimeter=0;strokeColor=#FF0000;exitX=0.5;exitY=1.083;exitDx=0;exitDy=0;exitPerimeter=0;" edge="1" parent="1" source="QOHJSO203ooWmIc7HkMj-18" target="QOHJSO203ooWmIc7HkMj-10">
          <mxGeometry relative="1" as="geometry">
            <mxPoint x="585" y="520" as="sourcePoint" />
            <Array as="points">
              <mxPoint x="585" y="547" />
            </Array>
          </mxGeometry>
        </mxCell>
        <mxCell id="QOHJSO203ooWmIc7HkMj-9" style="edgeStyle=orthogonalEdgeStyle;rounded=0;orthogonalLoop=1;jettySize=auto;html=1;entryX=0.008;entryY=0.6;entryDx=0;entryDy=0;strokeColor=#FF0000;entryPerimeter=0;exitX=0.521;exitY=1.05;exitDx=0;exitDy=0;exitPerimeter=0;" edge="1" parent="1" source="QOHJSO203ooWmIc7HkMj-10" target="QOHJSO203ooWmIc7HkMj-23">
          <mxGeometry relative="1" as="geometry">
            <mxPoint x="286" y="580" as="sourcePoint" />
            <mxPoint x="285" y="670" as="targetPoint" />
            <Array as="points">
              <mxPoint x="286" y="573" />
              <mxPoint x="286" y="656" />
            </Array>
          </mxGeometry>
        </mxCell>
      </root>
    </mxGraphModel>
  </diagram>
</mxfile>
